# Blender v2.91.0 OBJ File: 'untitled.blend'
# www.blender.org
mtllib skilift.mtl
o Cube
v -0.446786 8.484666 -0.446786
v -0.446786 -0.257701 -0.446786
v -0.446786 8.484666 0.446786
v -0.446786 -0.257701 0.446786
v -0.446786 7.762214 0.446786
v -0.446786 7.762214 -0.446786
v -0.446786 -0.257701 -0.269893
v -0.446786 -0.257701 0.269893
v -0.446786 8.484666 0.269893
v -0.446786 8.484666 -0.269893
v -2.684272 8.355657 -0.269893
v -2.684272 8.355657 0.269893
v -0.446786 7.762214 0.269893
v -0.446786 7.762214 -0.269893
v -0.446786 8.355657 0.446786
v -0.446786 8.355657 -0.446786
v -2.684272 7.762214 -0.269893
v -2.684272 7.762214 0.269893
v -0.446786 8.355657 0.269893
v -0.446786 8.355657 -0.269893
v 0.000000 8.484666 -0.446786
v 0.000000 -0.257701 -0.446786
v 0.000000 8.484666 0.446786
v 0.000000 -0.257701 0.446786
v 0.446786 8.484666 -0.446786
v 0.446786 -0.257701 -0.446786
v 0.446786 8.484666 0.446786
v 0.446786 -0.257701 0.446786
v 0.000000 7.762214 -0.446786
v 0.446786 7.762214 0.446786
v 0.000000 7.762214 0.446786
v 0.446786 7.762214 -0.446786
v 0.446786 -0.257701 -0.269893
v 0.446786 -0.257701 0.269893
v 0.000000 8.484666 -0.269893
v 0.000000 8.484666 0.269893
v 0.446786 8.484666 0.269893
v 0.446786 8.484666 -0.269893
v 0.000000 -0.257701 0.269893
v 0.000000 -0.257701 -0.269893
v 2.684272 8.355657 -0.269893
v 2.684272 8.355657 0.269893
v 0.446786 7.762214 0.269893
v 0.446786 7.762214 -0.269893
v 0.446786 8.355657 0.446786
v 0.000000 8.355657 -0.446786
v 0.000000 8.355657 0.446786
v 0.446786 8.355657 -0.446786
v 2.684272 7.762214 -0.269893
v 2.684272 7.762214 0.269893
v 0.446786 8.355657 0.269893
v 0.446786 8.355657 -0.269893
vt 0.625000 0.666667
vt 0.875000 0.666667
vt 0.875000 0.750000
vt 0.625000 0.750000
vt 0.621311 0.750000
vt 0.625000 1.000000
vt 0.621311 1.000000
vt 0.621311 0.166667
vt 0.625000 0.166667
vt 0.625000 0.250000
vt 0.621311 0.250000
vt 0.125000 0.666667
vt 0.375000 0.666667
vt 0.375000 0.750000
vt 0.125000 0.750000
vt 0.625000 0.500000
vt 0.621311 0.500000
vt 0.375000 0.250000
vt 0.604340 0.250000
vt 0.604340 0.500000
vt 0.375000 0.500000
vt 0.375000 0.166667
vt 0.604340 0.166667
vt 0.604340 0.750000
vt 0.604340 1.000000
vt 0.375000 1.000000
vt 0.375000 0.000000
vt 0.604340 0.000000
vt 0.604340 0.083333
vt 0.375000 0.083333
vt 0.621311 0.083333
vt 0.621311 0.083333
vt 0.604340 0.083333
vt 0.125000 0.500000
vt 0.375000 0.583333
vt 0.125000 0.583333
vt 0.621311 0.000000
vt 0.625000 0.000000
vt 0.625000 0.083333
vt 0.875000 0.500000
vt 0.875000 0.583333
vt 0.625000 0.583333
vt 0.604340 0.166667
vt 0.621311 0.166667
vt 0.875000 0.750000
vt 0.875000 0.666667
vt 0.621311 1.000000
vt 0.625000 1.000000
vt 0.621311 0.166667
vt 0.621311 0.250000
vt 0.625000 0.250000
vt 0.625000 0.166667
vt 0.125000 0.666667
vt 0.125000 0.750000
vt 0.375000 0.250000
vt 0.604340 0.250000
vt 0.375000 0.166667
vt 0.604340 0.166667
vt 0.375000 1.000000
vt 0.604340 1.000000
vt 0.375000 0.000000
vt 0.375000 0.083333
vt 0.604340 0.083333
vt 0.604340 0.000000
vt 0.604340 0.083333
vt 0.621311 0.083333
vt 0.621311 0.083333
vt 0.125000 0.500000
vt 0.125000 0.583333
vt 0.621311 0.000000
vt 0.625000 0.083333
vt 0.625000 0.000000
vt 0.875000 0.583333
vt 0.875000 0.500000
vt 0.621311 0.166667
vt 0.604340 0.166667
vn 0.0000 1.0000 0.0000
vn 0.0000 0.0000 1.0000
vn -1.0000 0.0000 0.0000
vn 0.0000 -1.0000 0.0000
vn 0.0000 0.0000 -1.0000
vn 1.0000 0.0000 0.0000
usemtl Material
s off
f 36/1/1 9/2/1 3/3/1 23/4/1
f 47/5/2 23/4/2 3/6/2 15/7/2
f 20/8/3 10/9/3 1/10/3 16/11/3
f 8/12/4 39/13/4 24/14/4 4/15/4
f 16/11/5 1/10/5 21/16/5 46/17/5
f 2/18/5 6/19/5 29/20/5 22/21/5
f 7/22/3 14/23/3 6/19/3 2/18/3
f 24/14/2 31/24/2 5/25/2 4/26/2
f 4/27/3 5/28/3 13/29/3 8/30/3
f 8/30/3 13/29/3 14/23/3 7/22/3
f 13/29/2 19/31/2 12/32/2 18/33/2
f 2/34/4 22/21/4 40/35/4 7/36/4
f 7/36/4 40/35/4 39/13/4 8/12/4
f 15/37/3 3/38/3 9/39/3 19/31/3
f 19/31/3 9/39/3 10/9/3 20/8/3
f 21/16/1 1/40/1 10/41/1 35/42/1
f 35/42/1 10/41/1 9/2/1 36/1/1
f 20/8/5 14/23/5 17/43/5 11/44/5
f 5/28/3 15/37/3 19/31/3 13/29/3
f 14/23/4 13/29/4 18/33/4 17/43/4
f 19/31/1 20/8/1 11/44/1 12/32/1
f 6/19/5 16/11/5 46/17/5 29/20/5
f 18/33/3 12/32/3 11/44/3 17/43/3
f 14/23/3 20/8/3 16/11/3 6/19/3
f 31/24/2 47/5/2 15/7/2 5/25/2
f 36/1/1 23/4/1 27/45/1 37/46/1
f 47/5/2 45/47/2 27/48/2 23/4/2
f 52/49/6 48/50/6 25/51/6 38/52/6
f 34/53/4 28/54/4 24/14/4 39/13/4
f 48/50/5 46/17/5 21/16/5 25/51/5
f 26/55/5 22/21/5 29/20/5 32/56/5
f 33/57/6 26/55/6 32/56/6 44/58/6
f 24/14/2 28/59/2 30/60/2 31/24/2
f 28/61/6 34/62/6 43/63/6 30/64/6
f 34/62/6 33/57/6 44/58/6 43/63/6
f 43/63/2 50/65/2 42/66/2 51/67/2
f 26/68/4 33/69/4 40/35/4 22/21/4
f 33/69/4 34/53/4 39/13/4 40/35/4
f 45/70/6 51/67/6 37/71/6 27/72/6
f 51/67/6 52/49/6 38/52/6 37/71/6
f 21/16/1 35/42/1 38/73/1 25/74/1
f 35/42/1 36/1/1 37/46/1 38/73/1
f 52/49/5 41/75/5 49/76/5 44/58/5
f 30/64/6 43/63/6 51/67/6 45/70/6
f 44/58/4 49/76/4 50/65/4 43/63/4
f 51/67/1 42/66/1 41/75/1 52/49/1
f 32/56/5 29/20/5 46/17/5 48/50/5
f 50/65/6 49/76/6 41/75/6 42/66/6
f 44/58/6 32/56/6 48/50/6 52/49/6
f 31/24/2 30/60/2 45/47/2 47/5/2
